<?xml version="1.0" standalone="no"?>
<!DOCTYPE svg PUBLIC "-//W3C//DTD SVG 20010904//EN"
 "http://www.w3.org/TR/2001/REC-SVG-20010904/DTD/svg10.dtd">
<svg version="1.0" xmlns="http://www.w3.org/2000/svg"
 width="1280.000000pt" height="932.000000pt" viewBox="0 0 1280.000000 932.000000"
 preserveAspectRatio="xMidYMid meet">
<metadata>
Created by potrace 1.15, written by Peter Selinger 2001-2017
</metadata>
<g transform="translate(0.000000,932.000000) scale(0.100000,-0.100000)"
fill="#000000" stroke="none">
<path d="M5751 8136 c-7 -8 -25 -45 -41 -82 l-28 -68 -7 40 c-18 107 -39 119
-42 24 -5 -141 -24 -308 -43 -366 -26 -85 -41 -236 -34 -342 l7 -90 -32 -29
-33 -28 26 -65 c36 -91 113 -352 136 -462 39 -179 37 -408 -6 -882 -19 -215
-22 -196 29 -196 l42 0 -3 -59 c-4 -57 -5 -60 -33 -66 l-29 -7 0 -182 c0 -129
-9 -271 -30 -487 -17 -167 -32 -307 -33 -312 -2 -8 -570 800 -575 819 -2 6 23
34 54 60 81 69 94 103 94 246 0 117 0 117 31 153 32 36 29 46 -5 20 -29 -22
-36 -19 -36 18 l0 32 -23 -28 -22 -28 -53 37 c-57 38 -85 42 -31 4 74 -54 101
-188 54 -279 -23 -46 -107 -141 -125 -141 -19 0 -80 101 -80 133 0 109 -127
175 -233 120 -33 -16 -75 -62 -99 -106 -10 -18 -17 -25 -18 -16 -1 49 115 149
173 149 14 0 29 5 32 10 5 9 -170 270 -181 270 -3 0 24 -41 58 -92 80 -117 81
-119 71 -116 -13 3 -53 -13 -53 -21 0 -5 -13 -14 -30 -21 -16 -7 -30 -16 -30
-20 0 -4 -13 -13 -30 -20 -16 -7 -30 -16 -30 -20 0 -4 -15 -15 -34 -25 -32
-17 -33 -20 -20 -39 8 -11 14 -31 14 -44 0 -13 10 -38 22 -55 l23 -32 6 30 c6
25 7 23 7 -15 0 -54 -14 -105 -39 -141 -18 -26 -18 -27 1 -44 11 -10 20 -23
20 -30 0 -21 -37 -47 -62 -43 -20 3 -23 7 -19 43 1 22 12 62 23 90 17 41 19
64 14 125 -7 93 -14 120 -32 120 -7 0 -35 24 -61 52 -114 124 -128 135 -39 31
79 -93 96 -119 98 -148 0 -19 1 -40 2 -47 1 -6 -5 -13 -11 -15 -9 -3 -13 5
-13 24 0 39 -10 73 -22 73 -5 0 -9 -17 -8 -37 3 -57 1 -63 -15 -63 -8 0 -15 6
-15 13 -1 6 -7 26 -15 42 -14 29 -15 28 -9 -28 4 -39 2 -63 -7 -73 -9 -11 -8
-18 6 -34 10 -11 21 -38 25 -61 7 -39 5 -44 -40 -97 -26 -32 -62 -70 -80 -87
-17 -16 -38 -42 -46 -57 -12 -23 -12 -29 2 -42 24 -25 72 -19 163 19 45 19 87
35 92 35 5 0 9 -16 9 -36 0 -21 16 -70 40 -120 22 -46 50 -118 62 -159 l22
-74 -18 -128 c-10 -70 -22 -184 -27 -253 -4 -69 -8 -126 -9 -128 0 -1 -176 86
-391 194 -440 220 -416 214 -421 104 l-2 -55 -3 53 c-4 45 0 59 27 98 75 111
95 195 106 431 4 106 10 151 20 159 10 8 14 55 16 200 l3 189 -42 125 c-79
236 -83 384 -17 680 34 150 53 180 253 385 54 55 108 115 120 133 13 18 39 41
60 51 21 11 43 27 50 35 12 14 10 16 -12 16 -38 0 -42 16 -16 65 27 50 20 69
-14 37 -32 -31 -37 -28 -37 21 0 38 -14 78 -23 67 -2 -3 -9 -25 -16 -50 -7
-24 -21 -55 -31 -67 -17 -22 -18 -22 -28 49 -11 75 -35 117 -48 84 -4 -10 -4
-60 -1 -111 5 -89 4 -93 -17 -105 -20 -10 -31 -8 -74 14 -51 26 -109 35 -97
16 4 -6 21 -16 38 -24 18 -8 52 -35 77 -60 l44 -46 -89 -90 c-62 -63 -92 -86
-97 -77 -4 7 -29 73 -57 146 -53 141 -87 201 -163 290 -26 31 -77 106 -114
169 -70 119 -98 146 -171 168 -98 30 -188 16 -231 -36 -70 -82 -79 -278 -17
-372 14 -21 25 -51 25 -68 0 -38 -20 -120 -29 -120 -3 1 -40 47 -81 103 -41
56 -112 141 -157 188 l-83 86 -5 68 c-3 39 -11 72 -18 77 -6 4 -35 5 -63 1
l-52 -5 -31 94 c-48 144 -81 179 -80 86 1 -82 -11 -147 -37 -192 -46 -79 -25
-120 68 -132 44 -6 51 -11 130 -103 229 -263 458 -577 479 -654 6 -23 27 -73
46 -110 20 -37 39 -87 44 -110 14 -75 -28 -289 -106 -547 -43 -138 -36 -286
23 -490 15 -52 23 -66 42 -70 20 -5 40 -41 116 -207 50 -111 96 -214 102 -230
5 -15 13 -35 17 -44 4 -12 -22 -48 -93 -127 -225 -251 -402 -518 -491 -743
l-22 -57 30 -78 c17 -44 31 -82 31 -86 0 -3 -26 -5 -57 -3 -50 2 -52 2 -18 -5
22 -4 35 -8 29 -8 -66 -10 -557 -41 -564 -37 -6 4 -11 -4 -11 -17 -1 -13 -5 0
-9 27 -5 28 -9 173 -9 323 l-1 272 31 19 31 19 -1 158 c-2 256 -18 349 -88
528 -43 110 -47 199 -12 286 42 108 47 127 68 250 43 259 54 436 26 446 -13 5
-14 21 -9 99 l7 94 -168 270 c-163 263 -169 271 -200 271 -31 0 -32 -1 -54
-82 -26 -94 -25 -92 -156 -268 -55 -74 -106 -147 -114 -162 -7 -14 -21 -28
-31 -31 -24 -6 -30 -54 -30 -242 0 -153 15 -293 41 -380 18 -62 66 -152 103
-193 l34 -38 9 -234 8 -235 -53 -77 c-86 -126 -94 -157 -101 -408 -11 -443 3
-540 94 -648 14 -17 29 -48 31 -69 3 -22 2 -33 -3 -26 -6 9 -77 9 -308 -2
-342 -16 -794 -33 -1162 -42 -244 -6 -252 -7 -257 -27 -8 -29 -5 -3207 2
-3231 7 -20 16 -20 6392 -20 6376 0 6385 0 6392 20 8 25 10 3202 2 3233 -6 21
-10 22 -140 22 -73 0 -245 4 -381 10 -871 33 -891 34 -920 15 l-28 -18 28 30
c15 16 25 32 22 35 -3 2 7 92 21 199 31 235 29 300 -14 389 -62 131 -111 193
-227 288 -158 129 -169 142 -161 189 11 55 72 165 157 277 41 54 80 108 86
120 17 28 16 79 -1 119 -7 18 -16 58 -20 89 -7 53 -6 56 18 62 19 5 26 15 31
46 8 45 38 90 122 181 32 35 101 114 153 174 52 61 132 152 177 203 81 92 122
165 109 198 -4 10 -13 14 -25 11 -17 -4 -20 2 -26 44 -11 80 -25 56 -25 -43
l-1 -93 -57 -70 c-32 -38 -82 -89 -112 -112 -120 -93 -149 -120 -186 -174 -35
-51 -45 -59 -103 -78 -35 -12 -66 -20 -68 -18 -2 3 2 24 8 49 17 64 5 112 -41
158 -50 50 -124 69 -203 51 -46 -10 -60 -19 -100 -65 -25 -30 -56 -72 -67 -94
-23 -44 -49 -170 -50 -242 -1 -73 -8 -87 -67 -120 -29 -17 -57 -28 -62 -26 -8
5 -25 99 -36 196 -4 30 -20 80 -35 111 l-29 56 24 23 c25 23 34 60 16 60 -5 0
-13 -9 -16 -20 -4 -11 -18 -28 -31 -37 -21 -13 -31 -14 -64 -4 -41 12 -60 35
-60 70 0 12 -5 21 -11 21 -8 0 -10 -16 -6 -50 7 -61 -5 -71 -44 -34 -39 38
-38 10 1 -38 l31 -37 -31 11 c-45 15 -47 3 -3 -26 30 -21 49 -26 100 -26 34 0
64 -4 67 -9 18 -29 38 -183 32 -250 -7 -84 7 -119 59 -147 31 -16 32 -16 108
25 42 24 81 40 87 36 6 -4 10 -64 10 -157 0 -171 -7 -194 -95 -309 -65 -83
-99 -162 -98 -224 0 -44 9 -65 60 -151 33 -54 102 -182 153 -283 l92 -184 -29
-23 c-15 -13 -48 -37 -73 -54 -72 -50 -102 -100 -114 -191 -7 -51 -15 -80 -25
-84 -11 -4 -12 -3 -1 10 11 13 8 15 -21 15 -19 0 -101 5 -184 10 -517 34 -719
51 -685 61 54 15 -4 8 -213 -28 -119 -20 -220 -33 -224 -30 -3 4 -2 96 4 205
13 232 28 291 102 405 56 85 119 204 152 287 40 102 30 233 -46 595 -48 229
-59 332 -59 570 0 228 9 299 61 455 24 74 31 85 53 88 14 1 97 -18 184 -43 88
-25 175 -45 193 -45 80 0 90 65 48 290 -14 73 -25 134 -25 135 0 1 -31 42 -70
90 -52 66 -74 101 -86 146 -9 33 -21 62 -27 66 -15 9 -2 -101 19 -165 9 -29
14 -55 11 -59 -4 -3 -36 9 -71 27 -39 20 -72 30 -82 26 -20 -8 -22 -6 74 -75
40 -29 78 -63 84 -75 15 -27 47 -185 39 -190 -16 -10 -65 26 -120 90 l-62 71
-77 12 c-136 22 -126 13 -119 95 3 39 20 111 37 161 30 86 31 94 24 198 -9
139 -29 184 -94 209 -60 23 -128 22 -182 -1 -47 -20 -96 -82 -135 -171 -31
-71 -117 -134 -137 -102 -3 5 -10 70 -16 144 l-12 135 59 56 c32 30 55 59 51
63 -4 3 -25 -1 -48 -10 -22 -9 -45 -16 -50 -16 -18 0 -10 84 14 153 13 37 20
67 15 67 -5 0 -32 -31 -59 -69 -46 -62 -55 -69 -92 -74 -22 -3 -45 -10 -50
-15 -10 -10 -22 -376 -21 -642 0 -168 18 -398 38 -485 22 -99 10 -224 -43
-440 -45 -185 -46 -194 -46 -345 0 -85 5 -224 12 -308 13 -160 17 -658 6 -687
-6 -14 -582 -311 -589 -303 -1 2 -11 31 -23 65 -23 69 -26 64 45 78 27 5 32
10 28 28 -4 20 -13 90 -45 367 -6 47 -20 185 -31 308 l-20 222 47 55 c26 30
48 54 49 52 102 -134 141 -200 168 -280 l30 -89 -17 -61 c-9 -33 -13 -63 -9
-67 10 -9 95 -42 98 -38 1 2 -2 60 -7 130 l-9 128 -78 182 c-78 184 -96 232
-81 223 4 -3 49 42 99 99 84 97 106 127 81 111 -16 -10 -11 1 7 16 11 10 14
10 9 2 -19 -32 9 -5 93 92 50 58 90 105 87 105 -2 0 -42 -42 -88 -93 -83 -92
-85 -93 -109 -78 -13 9 -30 21 -37 28 -6 6 -21 15 -32 18 -11 3 -20 10 -20 15
0 5 -9 12 -20 15 -11 3 -26 12 -33 18 -34 32 -77 56 -97 54 -15 -1 -34 -18
-55 -50 l-33 -49 19 -32 c10 -17 19 -35 19 -41 0 -5 -16 17 -35 51 -34 61 -35
61 -87 67 -29 4 -72 7 -95 7 -36 0 -46 5 -72 37 -32 39 -40 73 -18 73 7 0 27
15 44 33 110 116 101 311 -18 372 -66 35 -169 9 -224 -57 -40 -47 -55 -89 -55
-153 0 -63 15 -106 54 -152 21 -25 24 -36 17 -55 -24 -65 -65 -59 -112 15 -18
29 -75 110 -126 180 l-94 128 36 121 c53 177 91 244 173 300 l44 31 -4 55 c-4
45 -10 60 -33 80 -24 20 -35 23 -69 18 -23 -4 -47 -12 -53 -19 -7 -7 -22 -47
-32 -90 -18 -70 -50 -144 -188 -437 -39 -84 -44 -100 -38 -140 5 -29 74 -177
196 -420 115 -228 196 -400 206 -440 24 -91 23 -263 -1 -309 -10 -19 -61 -77
-113 -130 -52 -53 -122 -136 -155 -186 -33 -49 -76 -107 -95 -128 -27 -30 -32
-41 -23 -52 18 -21 -26 -94 -235 -393 -166 -239 -184 -260 -189 -235 -35 171
-126 740 -126 787 0 28 27 248 61 491 47 343 64 443 77 453 22 17 33 11 55
-26 17 -29 18 -39 8 -98 -19 -104 5 -137 43 -60 10 21 20 65 23 99 4 57 1 69
-35 143 -32 65 -43 102 -52 175 -12 94 -4 189 40 465 6 33 9 72 9 85 -1 13
-12 -39 -24 -116 -13 -77 -23 -128 -24 -114 -1 23 -6 27 -36 31 -29 3 -34 1
-30 -13 20 -62 45 -162 44 -176 0 -10 -9 15 -20 55 -11 40 -30 104 -43 143
-13 38 -21 71 -17 73 3 2 23 7 44 11 20 4 37 11 37 15 0 24 -154 323 -193 377
-51 69 -122 126 -214 172 -124 62 -132 121 -29 221 86 84 120 147 120 225 -1
71 -17 108 -73 158 -58 52 -104 69 -176 65 -79 -5 -119 -33 -152 -105 -23 -50
-25 -63 -19 -156 3 -56 8 -130 12 -164 6 -62 6 -63 -22 -73 -34 -13 -84 -3
-91 18 -30 91 -233 419 -257 415 -6 -1 -23 -5 -37 -9 -27 -6 -27 -6 -39 82 -7
49 -13 137 -14 195 -1 133 6 144 108 184 81 31 136 68 124 81 -10 9 -51 9
-103 0 l-40 -7 35 28 c19 15 60 51 90 80 66 64 49 71 -47 19 -35 -19 -63 -32
-63 -30 0 1 18 32 41 68 63 101 47 113 -35 25 -49 -51 -67 -66 -62 -48 9 33
20 139 14 139 -3 0 -11 -6 -17 -14z m-3663 -1791 c58 -95 92 -201 111 -344 14
-110 14 -131 -3 -131 -14 0 -26 -60 -26 -137 l0 -43 -41 21 -41 21 6 111 c6
99 5 116 -12 147 -54 99 -199 95 -259 -7 -35 -60 -30 -137 15 -222 31 -60 40
-113 23 -140 -11 -17 -37 -4 -92 46 l-39 35 0 106 c0 179 25 262 136 453 38
66 49 77 84 88 49 14 70 35 70 68 l0 26 19 -24 c10 -13 32 -46 49 -74z m4504
-261 c17 -32 29 -44 46 -44 17 0 33 -17 65 -67 57 -89 59 -93 54 -93 -3 0 -26
34 -53 75 -36 55 -53 73 -66 69 -11 -3 -23 4 -34 21 -11 17 -25 25 -45 25 -28
0 -29 2 -31 48 -2 26 -5 -79 -8 -233 l-5 -280 -3 289 -2 290 29 -28 c16 -16
40 -48 53 -72z m208 -278 c0 -12 -5 -7 -19 24 -11 24 -11 24 3 6 9 -11 16 -24
16 -30z m-613 -794 c11 -7 94 -358 128 -542 21 -113 112 -1062 99 -1032 -3 7
-23 12 -46 12 -34 0 -39 -3 -33 -17 13 -35 -32 25 -219 291 -131 187 -146 213
-146 250 0 22 25 190 55 371 31 182 64 402 74 489 15 129 22 162 37 173 20 15
34 16 51 5z m-946 -399 c161 -186 301 -348 312 -361 20 -22 20 -27 9 -210 -7
-103 -13 -229 -13 -279 -1 -51 -3 -93 -5 -93 -2 0 -144 70 -315 155 l-310 156
31 57 c44 82 66 240 51 372 -12 106 -28 160 -94 305 -44 98 -44 101 -31 144 7
25 25 55 41 67 15 13 29 23 30 24 1 0 133 -152 294 -337z m3957 123 c26 -39
42 -88 42 -133 0 -28 -6 -36 -41 -53 -23 -12 -43 -20 -45 -17 -6 6 8 237 15
237 3 0 16 -15 29 -34z m29 -208 c-3 -8 -6 -5 -6 6 -1 11 2 17 5 13 3 -3 4
-12 1 -19z m-21 -56 c-9 -17 -20 -33 -25 -36 -5 -4 0 12 12 33 25 46 36 48 13
3z m-1297 11 c17 -15 22 -37 32 -128 9 -92 14 -113 32 -127 16 -12 27 -46 47
-135 l25 -118 -355 -182 c-195 -100 -360 -183 -366 -183 -7 0 -19 18 -28 40
-15 38 -15 47 9 168 13 70 29 174 36 230 l12 104 76 64 c50 42 85 64 102 64
17 0 60 28 133 88 148 120 165 132 196 132 15 0 37 -8 49 -17z m1248 -60 c-2
-16 -4 -3 -4 27 0 30 2 43 4 28 2 -16 2 -40 0 -55z m-7128 -125 l-1 -143 35
-13 35 -14 7 -101 c13 -180 20 -421 14 -472 -3 -27 -7 -43 -8 -34 -1 14 -8 15
-43 8 -24 -4 -75 -8 -114 -9 -38 0 -75 -5 -81 -11 -8 -8 -13 15 -17 83 -9 118
-39 295 -66 382 l-21 67 28 46 c15 25 38 55 50 68 24 24 83 190 83 234 0 37
17 51 62 51 l39 0 -2 -142z m1754 -88 c45 -17 231 -88 413 -157 l331 -125 7
-121 c9 -168 7 -339 -3 -356 -7 -11 -74 -7 -414 25 -381 36 -406 40 -412 59
-11 38 -25 601 -17 740 6 130 7 134 10 53 l3 -87 82 -31z m1019 -15 c14 -42
14 -57 4 -98 -7 -26 -14 -48 -17 -49 -10 -1 -119 57 -119 64 0 16 42 93 63
116 31 33 50 24 69 -33z m3984 -262 c-3 -65 -9 -164 -13 -220 l-6 -102 25 -6
c19 -5 29 -20 46 -68 12 -34 22 -67 22 -73 0 -7 -21 -15 -47 -18 -27 -4 -61
-9 -78 -11 -24 -4 -26 -3 -10 4 13 6 -54 10 -192 10 -163 1 -213 -2 -214 -11
-1 -7 -8 75 -15 182 -7 107 -15 206 -16 219 -3 23 10 30 237 117 132 51 246
93 254 93 11 1 13 -20 7 -116z m-5353 20 c5 -64 26 -177 73 -393 l6 -26 -174
17 c-95 10 -176 18 -180 18 -3 1 -13 21 -21 45 l-15 44 76 124 c72 117 202
265 222 253 4 -2 10 -39 13 -82z m7744 50 l30 -28 -2 -200 c-1 -141 -6 -208
-15 -227 -11 -23 -11 -30 1 -45 12 -15 12 -16 -5 -10 -10 4 -53 10 -95 13 -42
2 -102 7 -133 9 -47 4 -57 2 -62 -13 -3 -9 -3 1 0 23 7 52 26 71 85 86 51 13
82 46 128 136 27 53 26 76 -3 191 l-23 92 32 0 c22 0 43 -9 62 -27z m-4047
-115 c0 -18 9 -91 20 -163 30 -202 38 -182 -85 -243 -110 -55 -120 -58 -110
-42 3 6 -3 10 -14 10 -12 0 -21 -6 -21 -12 -1 -39 -21 31 -31 110 l-11 91 33
40 c168 197 205 240 212 240 4 1 7 -14 7 -31z m-2375 -49 c3 -3 -2 -75 -10
-160 -22 -220 -28 -266 -33 -246 -3 15 -11 18 -33 15 l-29 -5 0 142 c0 78 3
176 6 217 l7 75 43 -16 c24 -9 46 -19 49 -22z m457 -170 l328 -124 -1 -60 c0
-33 -3 -54 -6 -47 -4 9 -83 12 -348 12 -319 0 -344 -1 -348 -17 -9 -36 -7 175
3 257 13 101 16 114 33 107 6 -2 159 -60 339 -128z m2907 84 c6 -21 11 -56 11
-78 0 -22 7 -80 15 -130 15 -91 18 -132 8 -107 -4 9 -94 12 -403 12 -309 0
-399 -3 -403 -12 -3 -7 -6 5 -6 27 l-1 40 103 40 c377 144 644 244 654 245 7
0 17 -17 22 -37z m-2038 -108 c112 -131 188 -225 169 -207 -9 8 -48 12 -113
12 -85 0 -98 -2 -93 -16 3 -8 2 -13 -3 -10 -5 3 -11 18 -14 33 -44 209 -67
319 -67 323 0 6 15 -10 121 -135z"/>
<path d="M6971 6414 c0 -11 3 -14 6 -6 3 7 2 16 -1 19 -3 4 -6 -2 -5 -13z"/>
<path d="M6962 6340 c0 -14 2 -19 5 -12 2 6 2 18 0 25 -3 6 -5 1 -5 -13z"/>
<path d="M8345 5859 c-32 -44 -55 -82 -53 -85 3 -2 30 34 61 81 32 47 55 85
53 85 -3 0 -30 -36 -61 -81z"/>
<path d="M8759 5823 l-24 -28 28 24 c15 14 27 26 27 28 0 8 -8 1 -31 -24z"/>
<path d="M4210 5805 c13 -14 26 -25 28 -25 3 0 -5 11 -18 25 -13 14 -26 25
-28 25 -3 0 5 -11 18 -25z"/>
<path d="M9730 4420 c-8 -5 -10 -10 -5 -10 6 0 17 5 25 10 8 5 11 10 5 10 -5
0 -17 -5 -25 -10z"/>
<path d="M9625 4381 c-22 -11 -35 -19 -30 -19 14 -1 93 36 80 37 -5 0 -28 -8
-50 -18z"/>
<path d="M2728 3603 c7 -3 16 -2 19 1 4 3 -2 6 -13 5 -11 0 -14 -3 -6 -6z"/>
</g>
</svg>
